Regular.ufo
<glyph name="comma" format="1">
  <advance width="177"/>
  <unicode hex="002C"/>
  <outline>
    <contour>
      <point x="78" y="0" type="line"/>
      <point x="84" y="-50"/>
      <point x="65" y="-80"/>
      <point x="29" y="-101" type="curve"/>
      <point x="51" y="-132" type="line"/>
      <point x="96" y="-104"/>
      <point x="125" y="-68"/>
      <point x="127" y="0" type="curve"/>
      <point x="127" y="115" type="line"/>
      <point x="25" y="115" type="line"/>
      <point x="25" y="0" type="line"/>
    </contour>
    <contour>
      <point x="68" y="199" type="move" name="_bottom"/>
    </contour>
  </outline>
</glyph>
<glyph name="slash" format="1">
  <advance width="533"/>
  <unicode hex="002F"/>
  <outline>
    <contour>
      <point x="40" y="-105" type="curve"/>
      <point x="413" y="766" type="line"/>
      <point x="413" y="766"/>
      <point x="493" y="738"/>
      <point x="493" y="738" type="curve"/>
      <point x="120" y="-133" type="line"/>
      <point x="120" y="-133"/>
      <point x="40" y="-105"/>
    </contour>
  </outline>
</glyph>
<glyph name="one" format="1">
  <advance width="371"/>
  <unicode hex="0031"/>
  <outline>
    <contour>
      <point x="161" y="0" type="line"/>
      <point x="161" y="591" type="line"/>
      <point x="189" y="522" type="line"/>
      <point x="50" y="522" type="line"/>
      <point x="50" y="576" type="line"/>
      <point x="110" y="589"/>
      <point x="171" y="624"/>
      <point x="195" y="685" type="curve"/>
      <point x="251" y="685" type="line"/>
      <point x="251" y="0" type="line"/>
    </contour>
  </outline>
</glyph>
<glyph name="seven" format="1">
  <advance width="480"/>
  <unicode hex="0037"/>
  <outline>
    <contour>
      <point x="455" y="600" type="line"/>
      <point x="315" y="433"/>
      <point x="243" y="236"/>
      <point x="243" y="0" type="curve"/>
      <point x="153" y="0" type="line"/>
      <point x="153" y="253"/>
      <point x="237" y="463"/>
      <point x="390" y="642" type="curve"/>
    </contour>
    <contour>
      <point x="40" y="685" type="line"/>
      <point x="40" y="685"/>
      <point x="455" y="685"/>
      <point x="455" y="685" type="curve"/>
      <point x="455" y="600" type="line"/>
      <point x="40" y="600" type="line"/>
    </contour>
  </outline>
</glyph>
<glyph name="at" format="1">
  <advance width="766"/>
  <unicode hex="0040"/>
  <outline>
    <contour>
      <point x="499" y="141" type="line" smooth="yes"/>
      <point x="495" y="114"/>
      <point x="506" y="99"/>
      <point x="537" y="99" type="curve"/>
      <point x="579" y="99"/>
      <point x="625" y="176"/>
      <point x="625" y="274" type="curve" smooth="yes"/>
      <point x="625" y="401"/>
      <point x="556" y="492"/>
      <point x="393" y="492" type="curve" smooth="yes"/>
      <point x="240" y="492"/>
      <point x="120" y="376"/>
      <point x="120" y="206" type="curve" smooth="yes"/>
      <point x="120" y="52"/>
      <point x="226" y="-25"/>
      <point x="363" y="-25" type="curve" smooth="yes"/>
      <point x="422" y="-25"/>
      <point x="444" y="-16"/>
      <point x="492" y="2" type="curve"/>
      <point x="527" y="-74" type="line"/>
      <point x="473" y="-96"/>
      <point x="435" y="-108"/>
      <point x="363" y="-108" type="curve" smooth="yes"/>
      <point x="176" y="-108"/>
      <point x="30" y="-12"/>
      <point x="30" y="206" type="curve"/>
      <point x="30" y="417"/>
      <point x="188" y="572"/>
      <point x="393" y="572" type="curve" smooth="yes"/>
      <point x="600" y="572"/>
      <point x="711" y="462"/>
      <point x="711" y="281" type="curve" smooth="yes"/>
      <point x="711" y="91"/>
      <point x="610" y="32"/>
      <point x="525" y="32" type="curve"/>
      <point x="424" y="32"/>
      <point x="415" y="94"/>
      <point x="424" y="151" type="curve" smooth="yes"/>
      <point x="467" y="389" type="line"/>
      <point x="541" y="389" type="line"/>
    </contour>
    <contour>
      <point x="436" y="245" type="line"/>
      <point x="437" y="251"/>
      <point x="437" y="257"/>
      <point x="437" y="263" type="curve" smooth="yes"/>
      <point x="437" y="311"/>
      <point x="416" y="339"/>
      <point x="372" y="339" type="curve"/>
      <point x="319" y="339"/>
      <point x="287" y="278"/>
      <point x="287" y="217" type="curve" smooth="yes"/>
      <point x="287" y="169"/>
      <point x="304" y="131"/>
      <point x="346" y="131" type="curve"/>
      <point x="398" y="131"/>
      <point x="430" y="175"/>
      <point x="436" y="245" type="curve"/>
      <point x="464" y="245" type="line"/>
      <point x="456" y="154"/>
      <point x="418" y="67"/>
      <point x="333" y="67" type="curve"/>
      <point x="256" y="67"/>
      <point x="208" y="115"/>
      <point x="208" y="216" type="curve" smooth="yes"/>
      <point x="208" y="309"/>
      <point x="274" y="401"/>
      <point x="377" y="401" type="curve"/>
      <point x="451" y="401"/>
      <point x="477" y="344"/>
      <point x="477" y="290" type="curve" smooth="yes"/>
      <point x="477" y="276"/>
      <point x="466" y="261"/>
      <point x="464" y="245" type="curve"/>
    </contour>
  </outline>
</glyph>
<glyph name="R" format="1">
  <advance width="559"/>
  <unicode hex="0052"/>
  <outline>
    <contour>
      <point x="314" y="316" type="line"/>
      <point x="550" y="0" type="line"/>
      <point x="444" y="0" type="line"/>
      <point x="444" y="0"/>
      <point x="229" y="288"/>
      <point x="229" y="288" type="curve"/>
    </contour>
    <component base="P"/>
    <contour>
      <point x="250" y="685" type="move" name="top"/>
    </contour>
    <contour>
      <point x="273" y="0" type="move" name="bottom"/>
    </contour>
  </outline>
</glyph>
<glyph name="bracketleft" format="1">
  <advance width="314"/>
  <unicode hex="005B"/>
  <outline>
    <contour>
      <point x="329" y="-100" type="line"/>
      <point x="329" y="-185" type="line"/>
      <point x="55" y="-185" type="line"/>
      <point x="55" y="-100" type="line"/>
    </contour>
    <contour>
      <point x="329" y="770" type="line"/>
      <point x="329" y="685" type="line"/>
      <point x="55" y="685" type="line"/>
      <point x="55" y="770" type="line"/>
    </contour>
    <component base="bar"/>
  </outline>
</glyph>
<glyph name="underscore" format="1">
  <advance width="565"/>
  <unicode hex="005F"/>
  <outline>
    <contour>
      <point x="0" y="0" type="line"/>
      <point x="565" y="0" type="line"/>
      <point x="565" y="-42" type="line"/>
      <point x="0" y="-42" type="line"/>
    </contour>
  </outline>
</glyph>
<glyph name="a" format="1">
  <advance width="516"/>
  <unicode hex="0061"/>
  <outline>
    <contour>
      <point x="29.0" y="388.0" type="line"/>
      <point x="87.0" y="478.0"/>
      <point x="158.0" y="510.0"/>
      <point x="251.0" y="510.0" type="curve" smooth="yes"/>
      <point x="361.0" y="510.0"/>
      <point x="454.0" y="460.0"/>
      <point x="448.0" y="320.0" type="curve" smooth="yes"/>
      <point x="441.0" y="143.0" type="line" smooth="yes"/>
      <point x="439.840950163" y="109.387554713"/>
      <point x="447.413962925" y="81.7126625472"/>
      <point x="513.0" y="89.0" type="curve"/>
      <point x="501.0" y="0.0" type="line"/>
      <point x="401.0" y="-13.3333333333"/>
      <point x="350.294117647" y="14.0588235294"/>
      <point x="355.0" y="147.0" type="curve" smooth="yes"/>
      <point x="362.0" y="324.0" type="line" smooth="yes"/>
      <point x="365.0" y="396.0"/>
      <point x="310.0" y="420.0"/>
      <point x="251.0" y="420.0" type="curve"/>
      <point x="193.0" y="420.0"/>
      <point x="144.0" y="398.0"/>
      <point x="109.0" y="347.0" type="curve"/>
    </contour>
    <contour>
      <point x="405" y="225" type="line"/>
      <point x="316" y="233"/>
      <point x="115" y="233"/>
      <point x="115" y="139" type="curve"/>
      <point x="115" y="101"/>
      <point x="149" y="71"/>
      <point x="205" y="71" type="curve"/>
      <point x="265" y="71"/>
      <point x="358" y="123"/>
      <point x="358" y="228" type="curve"/>
      <point x="410" y="222" type="line"/>
      <point x="398.0" y="79.6085106383"/>
      <point x="324" y="-12"/>
      <point x="197" y="-12" type="curve"/>
      <point x="107" y="-12"/>
      <point x="25" y="28"/>
      <point x="25" y="137" type="curve"/>
      <point x="25" y="289"/>
      <point x="228" y="323"/>
      <point x="413" y="305" type="curve"/>
    </contour>
    <contour>
      <point x="251.0" y="500.0" type="move" name="top"/>
    </contour>
    <contour>
      <point x="197.0" y="0.0" type="move" name="bottom"/>
    </contour>
    <contour>
      <point x="505.0" y="0.0" type="move" name="ogonek"/>
    </contour>
  </outline>
</glyph>
<glyph name="e" format="1">
  <advance width="516.099649011"/>
  <unicode hex="0065"/>
  <outline>
    <contour>
      <point x="85" y="302" type="line"/>
      <point x="427" y="302" type="line"/>
      <point x="417" y="217" type="line"/>
      <point x="85" y="217" type="line"/>
    </contour>
    <contour>
      <point x="480" y="125" type="line"/>
      <point x="451" y="38"/>
      <point x="351" y="-12"/>
      <point x="263" y="-12" type="curve" smooth="yes"/>
      <point x="137" y="-12"/>
      <point x="25" y="75"/>
      <point x="25" y="258" type="curve" smooth="yes"/>
      <point x="25" y="422"/>
      <point x="145" y="510"/>
      <point x="257" y="510" type="curve" smooth="yes"/>
      <point x="386" y="510"/>
      <point x="483" y="422"/>
      <point x="470" y="217" type="curve"/>
      <point x="380" y="217" type="line"/>
      <point x="393" y="353"/>
      <point x="341" y="425"/>
      <point x="256" y="425" type="curve" smooth="yes"/>
      <point x="180" y="425"/>
      <point x="115" y="356"/>
      <point x="115" y="248" type="curve" smooth="yes"/>
      <point x="115" y="153"/>
      <point x="170" y="73"/>
      <point x="266" y="73" type="curve" smooth="yes"/>
      <point x="320" y="73"/>
      <point x="379" y="113"/>
      <point x="399" y="160" type="curve"/>
    </contour>
    <contour>
      <point x="341.0" y="0.0" type="move" name="ogonek"/>
    </contour>
    <contour>
      <point x="260.0" y="500.0" type="move" name="top"/>
    </contour>
    <contour>
      <point x="273.0" y="0.0" type="move" name="bottom"/>
    </contour>
  </outline>
</glyph>
<glyph name="r" format="1">
  <advance width="343"/>
  <unicode hex="0072"/>
  <outline>
    <contour>
      <point x="322" y="401" type="line"/>
      <point x="299" y="414"/>
      <point x="279" y="421"/>
      <point x="255" y="421" type="curve" smooth="yes"/>
      <point x="199" y="421"/>
      <point x="146" y="369"/>
      <point x="146" y="314" type="curve"/>
      <point x="107" y="314" type="line"/>
      <point x="107" y="433"/>
      <point x="185" y="510"/>
      <point x="263" y="510" type="curve" smooth="yes"/>
      <point x="294" y="510"/>
      <point x="327" y="500"/>
      <point x="353" y="481" type="curve"/>
    </contour>
    <component base="dotlessi" xOffset="1"/>
    <contour>
      <point x="237" y="500" type="move" name="top"/>
    </contour>
    <contour>
      <point x="238" y="0" type="move" name="bottom"/>
    </contour>
  </outline>
</glyph>
<glyph name="exclamdown" format="1">
  <advance width="212"/>
  <unicode hex="00A1"/>
  <outline>
    <contour>
      <point x="58" y="244" type="line"/>
      <point x="55" y="0" type="line"/>
      <point x="157" y="0" type="line"/>
      <point x="154" y="244" type="line"/>
      <point x="147" y="500" type="line"/>
      <point x="65" y="500" type="line"/>
    </contour>
    <contour>
      <point x="55" y="570" type="line"/>
      <point x="157" y="570" type="line"/>
      <point x="157" y="685" type="line"/>
      <point x="55" y="685" type="line"/>
    </contour>
  </outline>
</glyph>
<glyph name="cent" format="1">
  <advance width="498"/>
  <unicode hex="00A2"/>
  <outline>
    <contour>
      <point x="404" y="335" type="line"/>
      <point x="387.378670626" y="377.476730623"/>
      <point x="341" y="417"/>
      <point x="276" y="417" type="curve" smooth="yes"/>
      <point x="181" y="417"/>
      <point x="126.0" y="342.525423729"/>
      <point x="126" y="248" type="curve" smooth="yes"/>
      <point x="126" y="159"/>
      <point x="172.583850932" y="73.0"/>
      <point x="276" y="73" type="curve" smooth="yes"/>
      <point x="334.78125" y="73.0"/>
      <point x="391" y="116"/>
      <point x="408" y="165" type="curve"/>
      <point x="492" y="130" type="line"/>
      <point x="458" y="35"/>
      <point x="366.700934579" y="-12.0"/>
      <point x="274" y="-12" type="curve" smooth="yes"/>
      <point x="148.787148594" y="-12.0"/>
      <point x="36" y="60"/>
      <point x="36" y="245" type="curve" smooth="yes"/>
      <point x="36" y="414"/>
      <point x="145.919678715" y="510.0"/>
      <point x="274" y="510" type="curve" smooth="yes"/>
      <point x="380.476190476" y="510.0"/>
      <point x="458" y="451"/>
      <point x="489" y="367" type="curve"/>
    </contour>
    <component base="bar" xOffset="167"/>
  </outline>
</glyph>
<glyph name="currency" format="1">
  <advance width="518"/>
  <unicode hex="00A4"/>
  <outline>
    <contour>
      <point x="255" y="144" type="curve" smooth="yes"/>
      <point x="313" y="144"/>
      <point x="361" y="191"/>
      <point x="361" y="250" type="curve" smooth="yes"/>
      <point x="361" y="308"/>
      <point x="313" y="356"/>
      <point x="255" y="356" type="curve" smooth="yes"/>
      <point x="196" y="356"/>
      <point x="149" y="308"/>
      <point x="149" y="250" type="curve" smooth="yes"/>
      <point x="149" y="191"/>
      <point x="196" y="144"/>
    </contour>
    <contour>
      <point x="255" y="84" type="curve" smooth="yes"/>
      <point x="163" y="84"/>
      <point x="89" y="158"/>
      <point x="89" y="250" type="curve" smooth="yes"/>
      <point x="89" y="341"/>
      <point x="163" y="416"/>
      <point x="255" y="416" type="curve" smooth="yes"/>
      <point x="346" y="416"/>
      <point x="421" y="341"/>
      <point x="421" y="250" type="curve" smooth="yes"/>
      <point x="421" y="158"/>
      <point x="346" y="84"/>
    </contour>
    <contour>
      <point x="128" y="325" type="line"/>
      <point x="46" y="407" type="line"/>
      <point x="97" y="457" type="line"/>
      <point x="178" y="377" type="line"/>
    </contour>
    <contour>
      <point x="46" y="92" type="line"/>
      <point x="123" y="169" type="line"/>
      <point x="178" y="123" type="line"/>
      <point x="97" y="42" type="line"/>
    </contour>
    <contour>
      <point x="462" y="92" type="line"/>
      <point x="411" y="42" type="line"/>
      <point x="331" y="121" type="line"/>
      <point x="385" y="170" type="line"/>
    </contour>
    <contour>
      <point x="333" y="380" type="line"/>
      <point x="411" y="457" type="line"/>
      <point x="462" y="407" type="line"/>
      <point x="385" y="330" type="line"/>
    </contour>
  </outline>
</glyph>
<glyph name="registered" format="1">
  <advance width="294"/>
  <unicode hex="00AE"/>
  <outline>
    <contour>
      <point x="130" y="693" type="curve" smooth="yes"/>
      <point x="82" y="693"/>
      <point x="41" y="652"/>
      <point x="41" y="603" type="curve" smooth="yes"/>
      <point x="41" y="554"/>
      <point x="82" y="514"/>
      <point x="130" y="514" type="curve" smooth="yes"/>
      <point x="179" y="514"/>
      <point x="220" y="554"/>
      <point x="220" y="603" type="curve" smooth="yes"/>
      <point x="220" y="652"/>
      <point x="179" y="693"/>
    </contour>
    <contour>
      <point x="130" y="723" type="curve" smooth="yes"/>
      <point x="196" y="723"/>
      <point x="251" y="669"/>
      <point x="251" y="603" type="curve" smooth="yes"/>
      <point x="251" y="537"/>
      <point x="196" y="483"/>
      <point x="130" y="483" type="curve" smooth="yes"/>
      <point x="65" y="483"/>
      <point x="10" y="537"/>
      <point x="10" y="603" type="curve" smooth="yes"/>
      <point x="10" y="669"/>
      <point x="65" y="723"/>
    </contour>
    <contour>
      <point x="89" y="543" type="line"/>
      <point x="111" y="543" type="line"/>
      <point x="111" y="668" type="line"/>
      <point x="89" y="668" type="line"/>
    </contour>
    <contour>
      <point x="155" y="626" type="curve"/>
      <point x="155" y="613"/>
      <point x="147" y="606"/>
      <point x="128" y="606" type="curve" smooth="yes"/>
      <point x="99" y="606" type="line"/>
      <point x="99" y="586" type="line"/>
      <point x="126" y="586" type="line" smooth="yes"/>
      <point x="165" y="586"/>
      <point x="177" y="601"/>
      <point x="177" y="626" type="curve"/>
      <point x="177" y="651"/>
      <point x="165" y="668"/>
      <point x="126" y="668" type="curve" smooth="yes"/>
      <point x="99" y="668" type="line"/>
      <point x="99" y="648" type="line"/>
      <point x="128" y="648" type="line" smooth="yes"/>
      <point x="147" y="648"/>
      <point x="155" y="640"/>
    </contour>
    <contour>
      <point x="131" y="586" type="line"/>
      <point x="156" y="543" type="line"/>
      <point x="180" y="543" type="line"/>
      <point x="151" y="593" type="line"/>
    </contour>
  </outline>
</glyph>
<glyph name="acute" format="1">
  <advance width="532"/>
  <unicode hex="00B4"/>
  <outline>
    <contour>
      <point x="241" y="685" type="line"/>
      <point x="169" y="555" type="line"/>
      <point x="249" y="555" type="line"/>
      <point x="357" y="685" type="line"/>
    </contour>
    <contour>
      <point x="241" y="510" type="move" name="_top"/>
    </contour>
  </outline>
</glyph>
<glyph name="AE" format="1">
  <advance width="929"/>
  <unicode hex="00C6"/>
  <outline>
    <contour>
      <point x="520" y="228" type="line"/>
      <point x="175" y="228" type="line"/>
      <point x="226" y="318" type="line"/>
      <point x="520" y="318" type="line"/>
    </contour>
    <contour>
      <point x="-15" y="0" type="line"/>
      <point x="415" y="685" type="line"/>
      <point x="512" y="685" type="line"/>
      <point x="84" y="0" type="line"/>
    </contour>
    <contour>
      <point x="819" y="274" type="line"/>
      <point x="456" y="274" type="line"/>
      <point x="456" y="364" type="line"/>
      <point x="819" y="364" type="line"/>
    </contour>
    <contour>
      <point x="480" y="0" type="line"/>
      <point x="480" y="90" type="line"/>
      <point x="899" y="90" type="line"/>
      <point x="899" y="0" type="line"/>
    </contour>
    <contour>
      <point x="879" y="595" type="line"/>
      <point x="464" y="595" type="line"/>
      <point x="438" y="685" type="line"/>
      <point x="879" y="685" type="line"/>
    </contour>
    <contour>
      <point x="434" y="0" type="line"/>
      <point x="434" y="685" type="line"/>
      <point x="524" y="685" type="line"/>
      <point x="524" y="0" type="line"/>
    </contour>
  </outline>
</glyph>
<glyph name="tilde" format="1">
  <advance width="473"/>
  <unicode hex="02DC"/>
  <outline>
    <contour>
      <point x="50" y="570" type="line"/>
      <point x="50" y="682" name="inserted"/>
      <point x="147" y="729"/>
      <point x="246" y="670" type="curve" smooth="yes"/>
      <point x="311" y="631"/>
      <point x="346" y="652"/>
      <point x="351" y="707" type="curve"/>
      <point x="433" y="707" type="line"/>
      <point x="433" y="584"/>
      <point x="335" y="538"/>
      <point x="246" y="588" type="curve" smooth="yes"/>
      <point x="184" y="623"/>
      <point x="134" y="607"/>
      <point x="131" y="570" type="curve"/>
    </contour>
    <contour>
      <point x="236.0" y="500.0" type="move" name="_top"/>
    </contour>
  </outline>
</glyph>
<glyph name="hungarumlaut" format="1">
  <advance width="470"/>
  <unicode hex="02DD"/>
  <outline>
    <component base="acute" xOffset="59"/>
    <component base="acute" xOffset="-115"/>
    <contour>
      <point x="168" y="510" type="move" name="_top"/>
    </contour>
  </outline>
</glyph>
<glyph name="afii10057" format="1">
  <advance width="440"/>
  <unicode hex="0408"/>
  <outline>
    <component base="J"/>
    <contour>
      <point x="340.0" y="685.0" type="move" name="top"/>
    </contour>
  </outline>
</glyph>
<glyph name="afii10018" format="1">
  <advance width="561"/>
  <unicode hex="0411"/>
  <outline>
    <contour>
      <point x="461" y="595" type="line"/>
      <point x="65" y="595" type="line"/>
      <point x="65" y="685" type="line"/>
      <point x="461" y="685" type="line"/>
    </contour>
    <component base="afii10046"/>
  </outline>
</glyph>
<glyph name="afii10033" format="1">
  <advance width="642"/>
  <unicode hex="041F"/>
  <outline>
    <contour>
      <point x="579" y="595" type="line"/>
      <point x="65" y="595" type="line"/>
      <point x="65" y="685" type="line"/>
      <point x="579" y="685" type="line"/>
    </contour>
    <component base="I" xOffset="442"/>
    <component base="I"/>
  </outline>
</glyph>
<glyph name="afii10037" format="1">
  <advance width="599"/>
  <unicode hex="0423"/>
  <outline>
    <contour>
      <point x="256" y="0" type="line"/>
      <point x="-10" y="685" type="line"/>
      <point x="-10" y="685"/>
      <point x="93" y="685"/>
      <point x="93" y="685" type="curve"/>
      <point x="351" y="0" type="line"/>
    </contour>
    <contour>
      <point x="318" y="-97" type="line" smooth="yes"/>
      <point x="295" y="-159"/>
      <point x="251" y="-251"/>
      <point x="132" y="-251" type="curve" smooth="yes"/>
      <point x="107" y="-251"/>
      <point x="78" y="-251"/>
      <point x="52" y="-231" type="curve"/>
      <point x="76" y="-145" type="line"/>
      <point x="97" y="-153"/>
      <point x="116" y="-157"/>
      <point x="132" y="-157" type="curve" smooth="yes"/>
      <point x="185" y="-157"/>
      <point x="209" y="-118"/>
      <point x="217" y="-97" type="curve" smooth="yes"/>
      <point x="510" y="685" type="line"/>
      <point x="510" y="685"/>
      <point x="609" y="685"/>
      <point x="609" y="685" type="curve"/>
    </contour>
    <contour>
      <point x="300.0" y="685.0" type="move" name="top"/>
    </contour>
  </outline>
</glyph>
<glyph name="afii10074" format="1">
  <advance width="548"/>
  <unicode hex="0438"/>
  <outline>
    <contour>
      <point x="167" y="0" type="line"/>
      <point x="485" y="500" type="line"/>
      <point x="369" y="500" type="line"/>
      <point x="58" y="0" type="line"/>
    </contour>
    <contour>
      <point x="145" y="0" type="line"/>
      <point x="145" y="500" type="line"/>
      <point x="55" y="500" type="line"/>
      <point x="55" y="0" type="line"/>
    </contour>
    <contour>
      <point x="493" y="0" type="line"/>
      <point x="493.0" y="500.0" type="line"/>
      <point x="403.0" y="500.0" type="line"/>
      <point x="403" y="0" type="line"/>
    </contour>
    <contour>
      <point x="332.0" y="685.0" type="move" name="top"/>
    </contour>
    <contour>
      <point x="274.0" y="500.0" type="move" name="top"/>
    </contour>
  </outline>
</glyph>
<glyph name="uni0917" format="1">
  <advance width="587"/>
  <unicode hex="0917"/>
  <outline>
    <contour>
      <point x="128" y="326" type="line"/>
      <point x="128" y="670" type="line"/>
      <point x="222" y="670" type="line"/>
      <point x="222" y="326" type="line"/>
    </contour>
    <contour>
      <point x="143" y="299" type="curve"/>
      <point x="121" y="295" type="line"/>
      <point x="130" y="302" type="line"/>
      <point x="128" y="326" type="line"/>
      <point x="222" y="326" type="line"/>
      <point x="222" y="236"/>
      <point x="181" y="203"/>
      <point x="158" y="203" type="curve"/>
      <point x="75" y="203"/>
      <point x="25" y="273"/>
      <point x="25" y="336" type="curve"/>
      <point x="25" y="393"/>
      <point x="96" y="366"/>
      <point x="143" y="366" type="curve" smooth="yes"/>
      <point x="143" y="366"/>
      <point x="143" y="299"/>
    </contour>
    <component base="uni093E" xOffset="303"/>
    <component base="component_6" xOffset="-108"/>
  </outline>
</glyph>
<glyph name="uni091A" format="1">
  <advance width="585"/>
  <unicode hex="091A"/>
  <outline>
    <contour>
      <point x="342" y="379" type="line"/>
      <point x="211" y="379"/>
      <point x="166" y="325"/>
      <point x="166" y="265" type="curve"/>
      <point x="166" y="207"/>
      <point x="210" y="166"/>
      <point x="283" y="166" type="curve" smooth="yes"/>
      <point x="345" y="166"/>
      <point x="391" y="188"/>
      <point x="425" y="223" type="curve"/>
      <point x="474" y="165" type="line"/>
      <point x="428" y="117"/>
      <point x="364" y="84"/>
      <point x="281" y="84" type="curve" smooth="yes"/>
      <point x="163" y="84"/>
      <point x="75" y="139"/>
      <point x="75" y="261" type="curve"/>
      <point x="75" y="368"/>
      <point x="183" y="467"/>
      <point x="332" y="451" type="curve"/>
    </contour>
    <component base="component_6" xOffset="-60" yOffset="-226"/>
    <component base="component_6" xOffset="-108"/>
    <component base="uni093E" xOffset="301"/>
  </outline>
</glyph>
<glyph name="uni092C" format="1">
  <advance width="551"/>
  <unicode hex="092C"/>
  <outline>
    <contour>
      <point x="175" y="420" type="line"/>
      <point x="315" y="258" type="line"/>
      <point x="276" y="208" type="line"/>
      <point x="137" y="373" type="line"/>
    </contour>
    <component base="uni0935"/>
  </outline>
</glyph>
<glyph name="uni092E" format="1">
  <advance width="577"/>
  <unicode hex="092E"/>
  <outline>
    <contour>
      <point x="99" y="326" type="line"/>
      <point x="99" y="670" type="line"/>
      <point x="193" y="670" type="line"/>
      <point x="193" y="326" type="line"/>
    </contour>
    <component base="uni0928"/>
  </outline>
</glyph>
<glyph name="uni0937" format="1">
  <advance width="600"/>
  <unicode hex="0937"/>
  <outline>
    <contour>
      <point x="187" y="621" type="line"/>
      <point x="464" y="322" type="line"/>
      <point x="425" y="272" type="line"/>
      <point x="149" y="574" type="line"/>
    </contour>
    <component base="uni092A"/>
  </outline>
</glyph>
<glyph name="uni094D" format="1">
  <advance width="629"/>
  <unicode hex="094D"/>
  <outline>
    <contour>
      <point x="674" y="-296" type="line"/>
      <point x="673" y="-277"/>
      <point x="602" y="-97"/>
      <point x="490" y="-37" type="curve"/>
      <point x="436" y="-111" type="line"/>
      <point x="540" y="-171"/>
      <point x="595" y="-299"/>
      <point x="596" y="-311" type="curve"/>
    </contour>
  </outline>
</glyph>
<glyph name="uni094E" format="1">
  <advance width="284"/>
  <unicode hex="094E"/>
  <outline>
    <contour>
      <point x="97" y="685" type="line"/>
      <point x="294" y="685" type="line"/>
      <point x="294" y="605" type="line"/>
      <point x="97" y="605" type="line"/>
    </contour>
    <component base="l" xOffset="42"/>
  </outline>
</glyph>
<glyph name="uni0968" format="1">
  <advance width="456"/>
  <unicode hex="0968"/>
  <outline>
    <contour>
      <point x="20" y="610" type="line"/>
      <point x="60" y="658"/>
      <point x="125" y="685"/>
      <point x="198" y="685" type="curve" smooth="yes"/>
      <point x="326.0" y="685.0"/>
      <point x="431.0" y="580.0"/>
      <point x="431" y="452" type="curve" smooth="yes"/>
      <point x="431.0" y="323.932471625"/>
      <point x="336.937812894" y="219.0"/>
      <point x="219" y="219" type="curve"/>
      <point x="232" y="164" type="line" smooth="yes"/>
      <point x="242" y="125"/>
      <point x="265" y="96"/>
      <point x="287" y="96" type="curve" smooth="yes"/>
      <point x="308" y="96"/>
      <point x="326" y="111"/>
      <point x="335" y="137" type="curve"/>
      <point x="424" y="96" type="line"/>
      <point x="415" y="41"/>
      <point x="357" y="0"/>
      <point x="287" y="0" type="curve" smooth="yes"/>
      <point x="220" y="0"/>
      <point x="153" y="67"/>
      <point x="130" y="164" type="curve"/>
      <point x="109" y="219" type="line"/>
      <point x="60" y="219"/>
      <point x="20" y="259"/>
      <point x="20" y="308" type="curve" smooth="yes"/>
      <point x="20" y="353"/>
      <point x="60" y="390"/>
      <point x="109" y="390" type="curve" smooth="yes"/>
      <point x="153" y="390"/>
      <point x="191" y="359"/>
      <point x="198" y="315" type="curve"/>
      <point x="273" y="315"/>
      <point x="335" y="377"/>
      <point x="335" y="452" type="curve" smooth="yes"/>
      <point x="335" y="527"/>
      <point x="273" y="589"/>
      <point x="198" y="589" type="curve" smooth="yes"/>
      <point x="150" y="589"/>
      <point x="110" y="574"/>
      <point x="89" y="548" type="curve"/>
    </contour>
  </outline>
</glyph>
<glyph name="uni096D" format="1">
  <advance width="530"/>
  <unicode hex="096D"/>
  <outline>
    <contour>
      <point x="25" y="685" type="line"/>
      <point x="121" y="685" type="line"/>
      <point x="121" y="260" type="line" smooth="yes"/>
      <point x="121.0" y="169.220131745"/>
      <point x="186.732512701" y="96.0"/>
      <point x="272" y="96" type="curve" smooth="yes"/>
      <point x="346.0" y="96.0"/>
      <point x="409.0" y="176.0"/>
      <point x="409" y="274" type="curve"/>
      <point x="354" y="274" type="line" smooth="yes"/>
      <point x="311" y="274"/>
      <point x="276" y="295"/>
      <point x="247" y="334" type="curve" smooth="yes"/>
      <point x="218" y="374"/>
      <point x="203" y="423"/>
      <point x="203" y="480" type="curve" smooth="yes"/>
      <point x="203.0" y="591.086361009"/>
      <point x="267.28682026" y="685.0"/>
      <point x="354" y="685" type="curve" smooth="yes"/>
      <point x="438.195143606" y="685.0"/>
      <point x="505.0" y="591.741011856"/>
      <point x="505" y="480" type="curve" smooth="yes"/>
      <point x="505" y="274" type="line" smooth="yes"/>
      <point x="505.0" y="124.816527354"/>
      <point x="400.704439261" y="0.0"/>
      <point x="272" y="0" type="curve" smooth="yes"/>
      <point x="133.278439764" y="0.0"/>
      <point x="25.0" y="116.745140195"/>
      <point x="25" y="260" type="curve" smooth="yes"/>
    </contour>
    <contour>
      <point x="299" y="480" type="line"/>
      <point x="299" y="419"/>
      <point x="322" y="370"/>
      <point x="354" y="370" type="curve" smooth="yes"/>
      <point x="385" y="370"/>
      <point x="409" y="419"/>
      <point x="409" y="480" type="curve" smooth="yes"/>
      <point x="409" y="540"/>
      <point x="385" y="589"/>
      <point x="354" y="589" type="curve" smooth="yes"/>
      <point x="322" y="589"/>
      <point x="299" y="540"/>
      <point x="299" y="480" type="curve"/>
    </contour>
  </outline>
</glyph>
<glyph name="two.onum" format="1">
  <advance width="473"/>
  <unicode hex="E002"/>
  <outline>
    <contour>
      <point x="433" y="0" type="line"/>
      <point x="62" y="0" type="line"/>
      <point x="62" y="30" type="line" smooth="yes"/>
      <point x="62" y="238"/>
      <point x="326" y="211"/>
      <point x="326" y="332" type="curve" smooth="yes"/>
      <point x="326" y="380"/>
      <point x="291" y="424"/>
      <point x="235" y="424" type="curve" smooth="yes"/>
      <point x="178" y="424"/>
      <point x="135" y="389"/>
      <point x="125" y="324" type="curve"/>
      <point x="40" y="344" type="line"/>
      <point x="58" y="444"/>
      <point x="128" y="510"/>
      <point x="235" y="510" type="curve" smooth="yes"/>
      <point x="346" y="510"/>
      <point x="416" y="424"/>
      <point x="416" y="332" type="curve" smooth="yes"/>
      <point x="416" y="154"/>
      <point x="167" y="210"/>
      <point x="167" y="29" type="curve"/>
      <point x="167" y="29"/>
      <point x="98" y="84"/>
      <point x="98" y="84" type="curve"/>
      <point x="433" y="84" type="line"/>
    </contour>
  </outline>
</glyph>
<glyph name="seven.pnum" format="1">
  <advance width="638"/>
  <unicode hex="E017"/>
  <outline>
    <contour>
      <point x="563" y="600" type="line"/>
      <point x="423" y="433"/>
      <point x="351" y="236"/>
      <point x="351" y="0" type="curve"/>
      <point x="261" y="0" type="line"/>
      <point x="261" y="253"/>
      <point x="345" y="468"/>
      <point x="498" y="647" type="curve"/>
    </contour>
    <contour>
      <point x="108" y="685" type="line"/>
      <point x="108" y="685"/>
      <point x="563" y="685"/>
      <point x="563" y="685" type="curve"/>
      <point x="563" y="600" type="line"/>
      <point x="108" y="600" type="line"/>
    </contour>
  </outline>
</glyph>
<glyph name="f_f_i" format="1">
  <advance width="882"/>
  <unicode hex="FB03"/>
  <outline>
    <contour>
      <point x="523" y="415" type="line"/>
      <point x="523" y="500" type="line"/>
      <point x="807" y="500" type="line"/>
      <point x="807" y="415" type="line"/>
    </contour>
    <component base="dotlessi" xOffset="682"/>
    <component base="f_f"/>
  </outline>
</glyph>
<glyph name="f_f_l" format="1">
  <advance width="882"/>
  <unicode hex="FB04"/>
  <outline>
    <contour>
      <point x="133" y="415" type="line"/>
      <point x="133" y="500" type="line"/>
      <point x="417" y="500" type="line"/>
      <point x="417" y="415" type="line"/>
    </contour>
    <component base="fl" xOffset="315"/>
    <component base="f"/>
  </outline>
</glyph>
